<svg xmlns="http://www.w3.org/2000/svg" width="420" height="90" viewBox="0 0 420 90" role="img" aria-labelledby="title desc">
  <title id="title">Clothes with a second first impression.</title>
  <desc id="desc">Approved JustUrbanWears headline outlined from Bodoni Moda Variable at weight 500.</desc>
  <path fill="#3A2E25" d="M15.54 37.39L15.54 37.39Q11.47 37.39 8.44 35.44Q5.42 33.49 3.75 30.10Q2.09 26.70 2.09 22.38L2.09 22.38Q2.09 18.03 3.75 14.64Q5.42 11.26 8.44 9.31Q11.47 7.36 15.54 7.36L15.54 7.36Q17.45 7.36 19.16 8.01Q20.86 8.67 22.15 9.86L22.15 9.86L24.49 7.75L25.17 7.75L25.17 15.92L24.39 15.92Q24.12 13.60 22.90 11.88Q21.68 10.17 19.86 9.23Q18.04 8.30 15.93 8.30L15.93 8.30Q13.49 8.30 11.82 9.48Q10.14 10.66 9.13 12.67Q8.11 14.69 7.65 17.21Q7.20 19.72 7.20 22.38L7.20 22.38Q7.20 25.03 7.65 27.54Q8.11 30.06 9.13 32.08Q10.14 34.09 11.82 35.27Q13.49 36.45 15.93 36.45L15.93 36.45Q17.86 36.45 19.40 35.87Q20.94 35.28 22.08 34.24Q23.22 33.20 23.91 31.81Q24.59 30.43 24.78 28.83L24.78 28.83L25.56 28.83L25.56 37L24.88 37L22.74 34.76Q21.43 35.99 19.59 36.69Q17.75 37.39 15.54 37.39ZM29.29 7.75L36.70 7.75L36.70 36.24L40.03 36.24L40.03 37L29.29 37L29.29 36.24L32.66 36.24L32.66 8.51L29.29 8.51L29.29 7.75ZM52.32 37.39L52.32 37.39Q49.51 37.39 47.46 36.10Q45.42 34.82 44.30 32.69Q43.19 30.57 43.19 28.03L43.19 28.03Q43.19 25.49 44.30 23.37Q45.42 21.24 47.46 19.97Q49.51 18.69 52.32 18.69L52.32 18.69Q55.11 18.69 57.14 19.97Q59.18 21.24 60.28 23.37Q61.39 25.49 61.39 28.03L61.39 28.03Q61.39 30.57 60.28 32.69Q59.18 34.82 57.14 36.10Q55.11 37.39 52.32 37.39ZM52.32 36.63L52.32 36.63Q53.74 36.63 54.65 35.86Q55.56 35.09 56.04 33.81Q56.53 32.53 56.72 31.01Q56.90 29.49 56.90 28.03L56.90 28.03Q56.90 26.55 56.72 25.04Q56.53 23.53 56.04 22.25Q55.56 20.97 54.65 20.20Q53.74 19.43 52.32 19.43L52.32 19.43Q50.88 19.43 49.97 20.20Q49.06 20.97 48.57 22.25Q48.09 23.53 47.90 25.04Q47.72 26.55 47.72 28.03L47.72 28.03Q47.72 29.49 47.90 31.01Q48.09 32.53 48.57 33.81Q49.06 35.09 49.97 35.86Q50.88 36.63 52.32 36.63ZM70.82 37.27L70.82 37.27Q69.15 37.27 68.29 36.58Q67.43 35.89 67.12 34.83Q66.81 33.76 66.81 32.59L66.81 32.59L66.81 15.16Q67.80 15.16 68.97 14.81Q70.14 14.46 70.84 13.99L70.84 13.99L70.84 33.43Q70.84 34.89 71.19 35.41Q71.55 35.93 72.38 35.93L72.38 35.93Q73.28 35.93 74.13 35.14Q74.98 34.35 75.52 33.26L75.52 33.26L76.17 33.65Q75.41 35.26 74.12 36.27Q72.83 37.27 70.82 37.27ZM75.02 19.82L64.16 19.82L64.16 19.06L75.02 19.06L75.02 19.82ZM87.03 37L78 37L78 36.24L80.59 36.24L80.59 8.51L78 8.51L78 7.75L84.63 7.75L84.63 36.24L87.03 36.24L87.03 37ZM99.04 37L90.07 37L90.07 36.24L92.47 36.24L92.47 25.11Q92.47 23.47 92.32 22.29Q92.18 21.11 91.70 20.47Q91.22 19.84 90.23 19.84L90.23 19.84Q88.78 19.84 87.72 20.66Q86.66 21.48 85.98 22.77Q85.29 24.05 84.96 25.50Q84.63 26.96 84.63 28.26L84.63 28.26L84.10 28.34Q84.10 27.02 84.44 25.37Q84.79 23.72 85.57 22.20Q86.35 20.68 87.69 19.68Q89.04 18.69 91.05 18.69L91.05 18.69Q93.27 18.69 94.44 19.44Q95.61 20.19 96.03 21.52Q96.45 22.84 96.45 24.54L96.45 24.54L96.45 36.24L99.04 36.24L99.04 37ZM111.19 37.39L111.19 37.39Q108.65 37.39 106.61 36.28Q104.56 35.17 103.36 33.07Q102.16 30.97 102.16 28.03L102.16 28.03Q102.16 25.09 103.29 23.00Q104.42 20.91 106.42 19.80Q108.42 18.69 110.97 18.69L110.97 18.69Q113.80 18.69 115.54 19.82Q117.27 20.95 118.06 22.79Q118.85 24.64 118.85 26.76L118.85 26.76L104.79 26.76L104.79 26.00L114.27 26.00Q114.27 24.97 114.16 23.83Q114.06 22.69 113.74 21.69Q113.43 20.70 112.77 20.06Q112.11 19.43 110.97 19.43L110.97 19.43Q109.69 19.43 108.86 20.11Q108.03 20.80 107.57 21.99Q107.11 23.19 106.93 24.71Q106.74 26.24 106.74 27.91L106.74 27.91Q106.74 29.65 106.96 31.21Q107.17 32.77 107.70 33.96Q108.22 35.15 109.18 35.84Q110.14 36.53 111.60 36.53L111.60 36.53Q114.17 36.53 115.85 35.21Q117.53 33.88 118.25 31.83L118.25 31.83L119.13 31.83Q118.36 34.23 116.41 35.81Q114.47 37.39 111.19 37.39ZM123.22 37.39L122.56 37.39L122.56 31.56L123.34 31.56Q123.65 32.98 124.53 34.12Q125.40 35.26 126.67 35.92Q127.94 36.57 129.40 36.57L129.40 36.57Q130.51 36.57 131.47 36.23Q132.42 35.89 133.01 35.20Q133.59 34.50 133.59 33.45L133.59 33.45Q133.59 32.28 132.83 31.60Q132.07 30.92 130.87 30.46Q129.67 30.00 128.33 29.55Q126.98 29.10 125.79 28.46Q124.60 27.82 123.84 26.73Q123.08 25.65 123.08 23.92L123.08 23.92Q123.08 22.59 123.69 21.40Q124.29 20.21 125.52 19.46Q126.75 18.71 128.58 18.71L128.58 18.71Q129.91 18.71 131.01 19.14Q132.11 19.57 132.95 20.29L132.95 20.29L134.57 18.69L135.25 18.69L135.25 24.13L134.47 24.13Q134.26 22.96 133.49 21.91Q132.72 20.85 131.48 20.18Q130.24 19.51 128.62 19.51L128.62 19.51Q127.71 19.51 126.94 19.82Q126.18 20.13 125.74 20.72Q125.29 21.30 125.29 22.10L125.29 22.10Q125.29 23.14 126.08 23.79Q126.87 24.44 128.12 24.91Q129.38 25.38 130.78 25.87Q132.17 26.35 133.43 27.04Q134.69 27.72 135.48 28.79Q136.27 29.86 136.27 31.52L136.27 31.52Q136.27 33.33 135.38 34.66Q134.49 35.99 133.01 36.69Q131.53 37.39 129.71 37.39L129.71 37.39Q128.33 37.39 127.10 36.92Q125.87 36.45 124.92 35.62L124.92 35.62L123.22 37.39ZM170.27 19.06L177.53 19.06L177.53 19.82L174.68 19.82L168.79 37.39L167.64 37.39L162.96 23.72L157.35 37.39L156.14 37.39L150.62 19.82L148.34 19.82L148.34 19.06L157.60 19.06L157.60 19.82L154.62 19.82L158.48 32.50L164.15 18.69L165.65 18.69L169.79 31.83L173.80 19.82L170.27 19.82L170.27 19.06ZM184.31 12.68L184.31 12.68Q183.24 12.68 182.48 11.91Q181.72 11.14 181.72 10.05L181.72 10.05Q181.72 8.96 182.48 8.20Q183.24 7.44 184.31 7.44L184.31 7.44Q185.43 7.44 186.19 8.20Q186.95 8.96 186.95 10.05L186.95 10.05Q186.95 11.14 186.19 11.91Q185.43 12.68 184.31 12.68ZM179.71 19.06L186.34 19.06L186.34 36.24L188.92 36.24L188.92 37L179.71 37L179.71 36.24L182.29 36.24L182.29 19.82L179.71 19.82L179.71 19.06ZM197.87 37.27L197.87 37.27Q196.19 37.27 195.33 36.58Q194.47 35.89 194.16 34.83Q193.85 33.76 193.85 32.59L193.85 32.59L193.85 15.16Q194.84 15.16 196.01 14.81Q197.18 14.46 197.89 13.99L197.89 13.99L197.89 33.43Q197.89 34.89 198.24 35.41Q198.59 35.93 199.43 35.93L199.43 35.93Q200.32 35.93 201.17 35.14Q202.02 34.35 202.57 33.26L202.57 33.26L203.21 33.65Q202.45 35.26 201.16 36.27Q199.88 37.27 197.87 37.27ZM202.06 19.82L191.20 19.82L191.20 19.06L202.06 19.06L202.06 19.82ZM214.07 37L205.04 37L205.04 36.24L207.64 36.24L207.64 8.51L205.04 8.51L205.04 7.75L211.67 7.75L211.67 36.24L214.07 36.24L214.07 37ZM226.08 37L217.11 37L217.11 36.24L219.51 36.24L219.51 25.11Q219.51 23.47 219.37 22.29Q219.22 21.11 218.74 20.47Q218.26 19.84 217.27 19.84L217.27 19.84Q215.83 19.84 214.76 20.66Q213.70 21.48 213.02 22.77Q212.34 24.05 212.00 25.50Q211.67 26.96 211.67 28.26L211.67 28.26L211.15 28.34Q211.15 27.02 211.49 25.37Q211.83 23.72 212.61 22.20Q213.39 20.68 214.73 19.68Q216.08 18.69 218.09 18.69L218.09 18.69Q220.31 18.69 221.48 19.44Q222.65 20.19 223.07 21.52Q223.49 22.84 223.49 24.54L223.49 24.54L223.49 36.24L226.08 36.24L226.08 37ZM253.79 37.39L253.79 37.39Q252.78 37.39 251.95 37.06Q251.12 36.73 250.62 35.97Q250.13 35.21 250.13 33.96L250.13 33.96L250.13 25.12Q250.13 23.72 249.88 22.43Q249.64 21.15 248.87 20.33Q248.10 19.51 246.54 19.51L246.54 19.51Q245.68 19.51 244.73 19.70Q243.79 19.90 242.97 20.30Q242.15 20.70 241.63 21.31Q241.12 21.93 241.12 22.78L241.12 22.78L240.20 22.78Q240.20 21.73 240.93 21.10Q241.66 20.46 242.56 20.46L242.56 20.46Q243.52 20.46 244.29 21.05Q245.06 21.63 245.06 22.71L245.06 22.71Q245.06 23.94 244.27 24.51Q243.48 25.09 242.56 25.09L242.56 25.09Q241.55 25.09 240.85 24.49Q240.16 23.90 240.16 22.78L240.16 22.78Q240.16 21.81 240.77 21.07Q241.37 20.33 242.39 19.81Q243.42 19.29 244.70 19.02Q245.97 18.75 247.30 18.75L247.30 18.75Q250.07 18.75 251.53 19.65Q252.99 20.56 253.54 22.01Q254.09 23.47 254.09 25.12L254.09 25.12L254.09 34.66Q254.09 35.30 254.32 35.75Q254.55 36.20 255.27 36.20L255.27 36.20Q255.78 36.20 256.42 35.79Q257.05 35.38 257.40 34.70L257.40 34.70L257.79 35.34Q257.26 36.24 256.23 36.81Q255.20 37.39 253.79 37.39ZM244.35 37.39L244.35 37.39Q241.82 37.39 240.31 36.09Q238.80 34.80 238.80 32.57L238.80 32.57Q238.80 29.96 241.05 28.47Q243.30 26.98 247.46 26.98L247.46 26.98L251.94 26.98L251.94 27.64L247.81 27.64Q246.15 27.64 245.14 28.35Q244.14 29.06 243.67 30.11Q243.20 31.15 243.20 32.20L243.20 32.20Q243.20 33.16 243.49 34.03Q243.77 34.89 244.38 35.44Q245.00 35.99 245.95 35.99L245.95 35.99Q246.97 35.99 247.91 35.31Q248.86 34.64 249.49 33.29Q250.13 31.93 250.13 29.88L250.13 29.88L250.58 29.88Q250.58 32.13 249.84 33.81Q249.11 35.50 247.73 36.44Q246.34 37.39 244.35 37.39ZM270.27 37.39L269.61 37.39L269.61 31.56L270.39 31.56Q270.70 32.98 271.58 34.12Q272.45 35.26 273.72 35.92Q274.99 36.57 276.45 36.57L276.45 36.57Q277.56 36.57 278.52 36.23Q279.47 35.89 280.06 35.20Q280.64 34.50 280.64 33.45L280.64 33.45Q280.64 32.28 279.88 31.60Q279.12 30.92 277.92 30.46Q276.72 30.00 275.38 29.55Q274.03 29.10 272.84 28.46Q271.65 27.82 270.89 26.73Q270.13 25.65 270.13 23.92L270.13 23.92Q270.13 22.59 270.74 21.40Q271.34 20.21 272.57 19.46Q273.80 18.71 275.63 18.71L275.63 18.71Q276.96 18.71 278.06 19.14Q279.16 19.57 280.00 20.29L280.00 20.29L281.62 18.69L282.30 18.69L282.30 24.13L281.52 24.13Q281.31 22.96 280.54 21.91Q279.77 20.85 278.53 20.18Q277.29 19.51 275.67 19.51L275.67 19.51Q274.76 19.51 273.99 19.82Q273.23 20.13 272.79 20.72Q272.34 21.30 272.34 22.10L272.34 22.10Q272.34 23.14 273.13 23.79Q273.92 24.44 275.17 24.91Q276.43 25.38 277.83 25.87Q279.22 26.35 280.48 27.04Q281.74 27.72 282.53 28.79Q283.32 29.86 283.32 31.52L283.32 31.52Q283.32 33.33 282.43 34.66Q281.54 35.99 280.06 36.69Q278.58 37.39 276.76 37.39L276.76 37.39Q275.38 37.39 274.15 36.92Q272.92 36.45 271.97 35.62L271.97 35.62L270.27 37.39ZM296.01 37.39L296.01 37.39Q293.48 37.39 291.43 36.28Q289.38 35.17 288.18 33.07Q286.98 30.97 286.98 28.03L286.98 28.03Q286.98 25.09 288.11 23.00Q289.24 20.91 291.24 19.80Q293.24 18.69 295.80 18.69L295.80 18.69Q298.62 18.69 300.36 19.82Q302.09 20.95 302.88 22.79Q303.67 24.64 303.67 26.76L303.67 26.76L289.61 26.76L289.61 26.00L299.09 26.00Q299.09 24.97 298.98 23.83Q298.88 22.69 298.56 21.69Q298.25 20.70 297.59 20.06Q296.93 19.43 295.80 19.43L295.80 19.43Q294.51 19.43 293.68 20.11Q292.85 20.80 292.39 21.99Q291.93 23.19 291.75 24.71Q291.56 26.24 291.56 27.91L291.56 27.91Q291.56 29.65 291.78 31.21Q291.99 32.77 292.52 33.96Q293.05 35.15 294.00 35.84Q294.96 36.53 296.42 36.53L296.42 36.53Q298.99 36.53 300.67 35.21Q302.35 33.88 303.07 31.83L303.07 31.83L303.95 31.83Q303.19 34.23 301.24 35.81Q299.29 37.39 296.01 37.39ZM316.56 37.39L316.56 37.39Q313.99 37.39 311.93 36.30Q309.87 35.21 308.69 33.12Q307.50 31.03 307.50 28.03L307.50 28.03Q307.50 25.42 308.57 23.30Q309.64 21.19 311.69 19.93Q313.74 18.67 316.70 18.67L316.70 18.67Q318.77 18.67 320.29 19.36Q321.81 20.05 322.64 21.16Q323.47 22.26 323.47 23.53L323.47 23.53Q323.47 24.68 322.77 25.33Q322.08 25.98 321.09 25.98L321.09 25.98Q320.54 25.98 319.96 25.73Q319.37 25.48 318.98 24.94Q318.59 24.40 318.59 23.56L318.59 23.56Q318.59 22.43 319.34 21.83Q320.09 21.22 321.09 21.22L321.09 21.22Q322.02 21.22 322.73 21.81Q323.43 22.39 323.43 23.53L323.43 23.53L322.69 23.53Q322.69 22.59 322.21 21.85Q321.73 21.11 320.94 20.58Q320.15 20.05 319.20 19.77Q318.24 19.49 317.30 19.49L317.30 19.49Q315.72 19.49 314.72 20.30Q313.72 21.11 313.18 22.38Q312.64 23.66 312.45 25.15Q312.25 26.65 312.25 28.03L312.25 28.03Q312.25 29.71 312.48 31.22Q312.70 32.73 313.25 33.90Q313.79 35.07 314.74 35.74Q315.69 36.41 317.13 36.41L317.13 36.41Q318.71 36.41 319.83 35.82Q320.95 35.23 321.71 34.19Q322.47 33.16 322.98 31.83L322.98 31.83L323.80 31.83Q323.04 34.25 321.33 35.82Q319.62 37.39 316.56 37.39ZM336.69 37.39L336.69 37.39Q333.88 37.39 331.83 36.10Q329.78 34.82 328.67 32.69Q327.56 30.57 327.56 28.03L327.56 28.03Q327.56 25.49 328.67 23.37Q329.78 21.24 331.83 19.97Q333.88 18.69 336.69 18.69L336.69 18.69Q339.48 18.69 341.51 19.97Q343.55 21.24 344.65 23.37Q345.75 25.49 345.75 28.03L345.75 28.03Q345.75 30.57 344.65 32.69Q343.55 34.82 341.51 36.10Q339.48 37.39 336.69 37.39ZM336.69 36.63L336.69 36.63Q338.11 36.63 339.02 35.86Q339.92 35.09 340.41 33.81Q340.90 32.53 341.08 31.01Q341.27 29.49 341.27 28.03L341.27 28.03Q341.27 26.55 341.08 25.04Q340.90 23.53 340.41 22.25Q339.92 20.97 339.02 20.20Q338.11 19.43 336.69 19.43L336.69 19.43Q335.24 19.43 334.34 20.20Q333.43 20.97 332.94 22.25Q332.46 23.53 332.27 25.04Q332.09 26.55 332.09 28.03L332.09 28.03Q332.09 29.49 332.27 31.01Q332.46 32.53 332.94 33.81Q333.43 35.09 334.34 35.86Q335.24 36.63 336.69 36.63ZM348.91 19.06L355.47 19.06L355.47 36.24L357.84 36.24L357.84 37L348.91 37L348.91 36.24L351.51 36.24L351.51 19.82L348.91 19.82L348.91 19.06ZM367.36 24.54L367.36 24.54L367.36 36.24L369.95 36.24L369.95 37L360.98 37L360.98 36.24L363.38 36.24L363.38 25.11Q363.38 23.47 363.24 22.29Q363.09 21.11 362.61 20.47Q362.13 19.84 361.14 19.84L361.14 19.84Q359.70 19.84 358.62 20.66Q357.55 21.48 356.86 22.77Q356.17 24.05 355.82 25.50Q355.47 26.96 355.47 28.26L355.47 28.26L354.96 28.34Q354.96 27.02 355.29 25.37Q355.62 23.72 356.42 22.20Q357.22 20.68 358.58 19.68Q359.93 18.69 362.00 18.69L362.00 18.69Q364.26 18.69 365.40 19.44Q366.54 20.19 366.95 21.52Q367.36 22.84 367.36 24.54ZM381.15 37.37L381.15 37.37Q379.08 37.37 377.25 36.26Q375.41 35.15 374.24 33.06Q373.07 30.97 373.07 28.05L373.07 28.05Q373.07 25.12 374.24 23.03Q375.41 20.93 377.25 19.81Q379.08 18.69 381.15 18.69L381.15 18.69Q383.53 18.69 385.13 20.30Q386.72 21.91 387.35 24.68L387.35 24.68L387.35 8.51L384.77 8.51L384.77 7.75L391.42 7.75L391.42 36.24L393.98 36.24L393.98 37L387.35 37L387.35 31.42Q386.72 34.17 385.13 35.77Q383.53 37.37 381.15 37.37ZM382.00 36.26L382.00 36.26Q383.39 36.26 384.61 35.30Q385.83 34.35 386.59 32.52Q387.35 30.68 387.35 28.05L387.35 28.05Q387.35 25.42 386.59 23.56Q385.83 21.71 384.61 20.76Q383.39 19.80 382.00 19.80L382.00 19.80Q380.62 19.80 379.67 20.75Q378.71 21.69 378.21 23.55Q377.71 25.40 377.71 28.05L377.71 28.05Q377.71 30.70 378.21 32.53Q378.71 34.37 379.67 35.31Q380.62 36.26 382.00 36.26Z"/>
  <path fill="#3A2E25" d="M8.46 80L4.47 80L4.47 60.05Q4.47 57.44 5.41 55.23Q6.36 53.03 8.18 51.70Q10.00 50.36 12.64 50.36L12.64 50.36Q14.25 50.36 15.36 50.97Q16.46 51.59 17.02 52.51Q17.59 53.44 17.59 54.38L17.59 54.38Q17.59 55.68 16.84 56.36Q16.09 57.03 15.11 57.03L15.11 57.03Q14.57 57.03 14.01 56.80Q13.46 56.56 13.07 56.04Q12.69 55.53 12.69 54.67L12.69 54.67Q12.69 53.54 13.47 52.91Q14.25 52.29 15.07 52.29L15.07 52.29Q15.68 52.29 16.24 52.54Q16.81 52.80 17.18 53.27Q17.55 53.73 17.55 54.38L17.55 54.38L16.81 54.38Q16.81 53.54 16.29 52.79Q15.78 52.04 14.85 51.58Q13.92 51.12 12.71 51.12L12.71 51.12Q11.15 51.12 10.22 52.05Q9.28 52.97 8.87 54.72Q8.46 56.46 8.46 58.94L8.46 58.94L8.46 80ZM12.97 80L1.11 80L1.11 79.24L12.97 79.24L12.97 80ZM13.75 62.82L1.11 62.82L1.11 62.06L13.75 62.06L13.75 62.82ZM21.76 55.68L21.76 55.68Q20.69 55.68 19.93 54.91Q19.17 54.14 19.17 53.05L19.17 53.05Q19.17 51.96 19.93 51.20Q20.69 50.44 21.76 50.44L21.76 50.44Q22.87 50.44 23.63 51.20Q24.39 51.96 24.39 53.05L24.39 53.05Q24.39 54.14 23.63 54.91Q22.87 55.68 21.76 55.68ZM17.16 62.06L23.79 62.06L23.79 79.24L26.36 79.24L26.36 80L17.16 80L17.16 79.24L19.73 79.24L19.73 62.82L17.16 62.82L17.16 62.06ZM35.59 71.65L35.14 71.65Q35.14 69.86 35.50 68.11Q35.86 66.35 36.58 64.90Q37.30 63.44 38.41 62.57Q39.53 61.69 41.05 61.69L41.05 61.69Q42.20 61.69 43.00 62.15Q43.80 62.61 44.22 63.34Q44.64 64.07 44.64 64.91L44.64 64.91Q44.64 66.00 43.95 66.78Q43.27 67.56 42.12 67.56L42.12 67.56Q40.99 67.56 40.29 66.90Q39.59 66.23 39.59 65.26L39.59 65.26Q39.59 64.07 40.36 63.42Q41.13 62.78 42.12 62.78L42.12 62.78Q42.82 62.78 43.38 63.06Q43.93 63.35 44.27 63.82Q44.60 64.30 44.60 64.91L44.60 64.91L43.84 64.91Q43.84 64.22 43.46 63.68Q43.08 63.13 42.42 62.80Q41.77 62.47 40.95 62.47L40.95 62.47Q39.78 62.47 38.80 63.24Q37.81 64.01 37.10 65.33Q36.39 66.64 35.99 68.27Q35.59 69.90 35.59 71.65L35.59 71.65ZM29.04 62.06L35.59 62.06L35.59 79.24L38.43 79.24L38.43 80L29.04 80L29.04 79.24L31.63 79.24L31.63 62.82L29.04 62.82L29.04 62.06ZM47.99 80.39L47.33 80.39L47.33 74.56L48.11 74.56Q48.42 75.98 49.30 77.12Q50.17 78.26 51.44 78.92Q52.71 79.57 54.17 79.57L54.17 79.57Q55.28 79.57 56.24 79.23Q57.19 78.89 57.78 78.20Q58.36 77.50 58.36 76.45L58.36 76.45Q58.36 75.28 57.60 74.60Q56.84 73.92 55.64 73.46Q54.44 73.00 53.10 72.55Q51.75 72.10 50.56 71.46Q49.37 70.82 48.61 69.73Q47.85 68.65 47.85 66.92L47.85 66.92Q47.85 65.59 48.46 64.40Q49.06 63.21 50.29 62.46Q51.52 61.71 53.35 61.71L53.35 61.71Q54.68 61.71 55.78 62.14Q56.88 62.57 57.72 63.29L57.72 63.29L59.34 61.69L60.02 61.69L60.02 67.13L59.24 67.13Q59.03 65.96 58.26 64.91Q57.49 63.85 56.25 63.18Q55.01 62.51 53.39 62.51L53.39 62.51Q52.47 62.51 51.71 62.82Q50.95 63.13 50.51 63.72Q50.06 64.30 50.06 65.10L50.06 65.10Q50.06 66.14 50.85 66.79Q51.64 67.44 52.89 67.91Q54.15 68.38 55.55 68.87Q56.94 69.35 58.20 70.04Q59.46 70.72 60.25 71.79Q61.03 72.86 61.03 74.52L61.03 74.52Q61.03 76.33 60.15 77.66Q59.26 78.99 57.78 79.69Q56.30 80.39 54.48 80.39L54.48 80.39Q53.10 80.39 51.87 79.92Q50.64 79.45 49.69 78.62L49.69 78.62L47.99 80.39ZM70.39 80.27L70.39 80.27Q68.72 80.27 67.86 79.58Q67.00 78.89 66.69 77.83Q66.38 76.76 66.38 75.59L66.38 75.59L66.38 58.16Q67.37 58.16 68.54 57.81Q69.71 57.46 70.41 56.99L70.41 56.99L70.41 76.43Q70.41 77.89 70.77 78.41Q71.12 78.93 71.95 78.93L71.95 78.93Q72.85 78.93 73.70 78.14Q74.55 77.35 75.09 76.26L75.09 76.26L75.74 76.65Q74.98 78.26 73.69 79.27Q72.40 80.27 70.39 80.27ZM74.59 62.82L63.73 62.82L63.73 62.06L74.59 62.06L74.59 62.82ZM92.12 55.68L92.12 55.68Q91.05 55.68 90.29 54.91Q89.52 54.14 89.52 53.05L89.52 53.05Q89.52 51.96 90.29 51.20Q91.05 50.44 92.12 50.44L92.12 50.44Q93.23 50.44 93.99 51.20Q94.75 51.96 94.75 53.05L94.75 53.05Q94.75 54.14 93.99 54.91Q93.23 55.68 92.12 55.68ZM87.52 62.06L94.15 62.06L94.15 79.24L96.72 79.24L96.72 80L87.52 80L87.52 79.24L90.09 79.24L90.09 62.82L87.52 62.82L87.52 62.06ZM99.39 62.06L105.94 62.06L105.94 79.24L108.30 79.24L108.30 80L99.39 80L99.39 79.24L101.98 79.24L101.98 62.82L99.39 62.82L99.39 62.06ZM117.06 67.54L117.06 67.54L117.06 79.24L119.44 79.24L119.44 80L110.72 80L110.72 79.24L113.08 79.24L113.08 67.99Q113.08 66.35 112.95 65.19Q112.83 64.03 112.39 63.42Q111.95 62.82 111.01 62.82L111.01 62.82Q109.75 62.82 108.79 63.65Q107.84 64.48 107.21 65.77Q106.59 67.05 106.27 68.49Q105.94 69.92 105.94 71.15L105.94 71.15L105.51 71.22Q105.51 69.90 105.82 68.27Q106.12 66.64 106.87 65.13Q107.62 63.62 108.90 62.65Q110.17 61.69 112.11 61.69L112.11 61.69Q114.06 61.69 115.13 62.44Q116.20 63.19 116.63 64.52Q117.06 65.84 117.06 67.54ZM128.15 67.54L128.15 67.54L128.15 79.24L130.75 79.24L130.75 80L121.82 80L121.82 79.24L124.20 79.24L124.20 67.99Q124.20 66.35 124.03 65.19Q123.86 64.03 123.39 63.42Q122.91 62.82 121.95 62.82L121.95 62.82Q120.67 62.82 119.74 63.65Q118.81 64.48 118.22 65.77Q117.62 67.05 117.34 68.49Q117.06 69.92 117.06 71.15L117.06 71.15L116.57 71.22Q116.57 69.90 116.85 68.27Q117.14 66.64 117.84 65.13Q118.54 63.62 119.81 62.65Q121.08 61.69 123.06 61.69L123.06 61.69Q125.00 61.69 126.11 62.44Q127.22 63.19 127.69 64.52Q128.15 65.84 128.15 67.54ZM142.49 89.75L133.30 89.75L133.30 88.99L135.90 88.99L135.90 62.82L133.30 62.82L133.30 62.06L139.93 62.06L139.93 67.68Q140.58 64.91 142.18 63.31Q143.79 61.71 146.15 61.71L146.15 61.71Q148.22 61.71 150.06 62.82Q151.90 63.93 153.06 66.02Q154.21 68.11 154.21 71.03L154.21 71.03Q154.21 73.95 153.06 76.05Q151.90 78.15 150.06 79.27Q148.22 80.39 146.15 80.39L146.15 80.39Q143.81 80.39 142.19 78.77Q140.58 77.15 139.93 74.40L139.93 74.40L139.93 88.99L142.49 88.99L142.49 89.75ZM145.27 79.28L145.27 79.28Q146.68 79.28 147.64 78.32Q148.61 77.37 149.11 75.52Q149.60 73.68 149.60 71.03L149.60 71.03Q149.60 68.38 149.11 66.55Q148.61 64.71 147.64 63.77Q146.68 62.82 145.27 62.82L145.27 62.82Q143.91 62.82 142.68 63.78Q141.45 64.73 140.69 66.56Q139.93 68.40 139.93 71.03L139.93 71.03Q139.93 73.66 140.69 75.52Q141.45 77.37 142.68 78.32Q143.91 79.28 145.27 79.28ZM163.92 71.65L163.47 71.65Q163.47 69.86 163.83 68.11Q164.19 66.35 164.91 64.90Q165.63 63.44 166.74 62.57Q167.86 61.69 169.38 61.69L169.38 61.69Q170.53 61.69 171.33 62.15Q172.13 62.61 172.55 63.34Q172.96 64.07 172.96 64.91L172.96 64.91Q172.96 66.00 172.28 66.78Q171.60 67.56 170.45 67.56L170.45 67.56Q169.32 67.56 168.62 66.90Q167.91 66.23 167.91 65.26L167.91 65.26Q167.91 64.07 168.68 63.42Q169.45 62.78 170.45 62.78L170.45 62.78Q171.15 62.78 171.71 63.06Q172.26 63.35 172.59 63.82Q172.93 64.30 172.93 64.91L172.93 64.91L172.17 64.91Q172.17 64.22 171.79 63.68Q171.40 63.13 170.75 62.80Q170.10 62.47 169.28 62.47L169.28 62.47Q168.11 62.47 167.12 63.24Q166.14 64.01 165.43 65.33Q164.72 66.64 164.32 68.27Q163.92 69.90 163.92 71.65L163.92 71.65ZM157.36 62.06L163.92 62.06L163.92 79.24L166.76 79.24L166.76 80L157.36 80L157.36 79.24L159.96 79.24L159.96 62.82L157.36 62.82L157.36 62.06ZM184.80 80.39L184.80 80.39Q182.27 80.39 180.22 79.28Q178.17 78.17 176.97 76.07Q175.77 73.97 175.77 71.03L175.77 71.03Q175.77 68.09 176.90 66.00Q178.03 63.91 180.03 62.80Q182.03 61.69 184.59 61.69L184.59 61.69Q187.41 61.69 189.15 62.82Q190.89 63.95 191.68 65.79Q192.46 67.64 192.46 69.76L192.46 69.76L178.41 69.76L178.41 69.00L187.88 69.00Q187.88 67.97 187.78 66.83Q187.67 65.69 187.36 64.69Q187.04 63.70 186.38 63.06Q185.72 62.43 184.59 62.43L184.59 62.43Q183.30 62.43 182.47 63.11Q181.64 63.80 181.18 64.99Q180.73 66.19 180.54 67.72Q180.36 69.24 180.36 70.91L180.36 70.91Q180.36 72.65 180.57 74.21Q180.78 75.77 181.31 76.96Q181.84 78.15 182.79 78.84Q183.75 79.53 185.21 79.53L185.21 79.53Q187.78 79.53 189.46 78.21Q191.14 76.88 191.86 74.83L191.86 74.83L192.74 74.83Q191.98 77.23 190.03 78.81Q188.08 80.39 184.80 80.39ZM196.83 80.39L196.17 80.39L196.17 74.56L196.95 74.56Q197.26 75.98 198.14 77.12Q199.02 78.26 200.28 78.92Q201.55 79.57 203.01 79.57L203.01 79.57Q204.13 79.57 205.08 79.23Q206.04 78.89 206.62 78.20Q207.21 77.50 207.21 76.45L207.21 76.45Q207.21 75.28 206.45 74.60Q205.69 73.92 204.49 73.46Q203.29 73.00 201.94 72.55Q200.60 72.10 199.41 71.46Q198.22 70.82 197.46 69.73Q196.70 68.65 196.70 66.92L196.70 66.92Q196.70 65.59 197.30 64.40Q197.91 63.21 199.13 62.46Q200.36 61.71 202.20 61.71L202.20 61.71Q203.52 61.71 204.62 62.14Q205.72 62.57 206.56 63.29L206.56 63.29L208.18 61.69L208.86 61.69L208.86 67.13L208.08 67.13Q207.87 65.96 207.10 64.91Q206.33 63.85 205.09 63.18Q203.85 62.51 202.23 62.51L202.23 62.51Q201.32 62.51 200.56 62.82Q199.80 63.13 199.35 63.72Q198.90 64.30 198.90 65.10L198.90 65.10Q198.90 66.14 199.69 66.79Q200.48 67.44 201.74 67.91Q203.00 68.38 204.39 68.87Q205.78 69.35 207.04 70.04Q208.30 70.72 209.09 71.79Q209.88 72.86 209.88 74.52L209.88 74.52Q209.88 76.33 208.99 77.66Q208.10 78.99 206.62 79.69Q205.14 80.39 203.33 80.39L203.33 80.39Q201.94 80.39 200.71 79.92Q199.48 79.45 198.53 78.62L198.53 78.62L196.83 80.39ZM214.09 80.39L213.43 80.39L213.43 74.56L214.21 74.56Q214.52 75.98 215.40 77.12Q216.27 78.26 217.54 78.92Q218.81 79.57 220.27 79.57L220.27 79.57Q221.38 79.57 222.34 79.23Q223.29 78.89 223.88 78.20Q224.46 77.50 224.46 76.45L224.46 76.45Q224.46 75.28 223.70 74.60Q222.94 73.92 221.74 73.46Q220.54 73.00 219.20 72.55Q217.85 72.10 216.66 71.46Q215.47 70.82 214.71 69.73Q213.95 68.65 213.95 66.92L213.95 66.92Q213.95 65.59 214.56 64.40Q215.16 63.21 216.39 62.46Q217.62 61.71 219.45 61.71L219.45 61.71Q220.78 61.71 221.88 62.14Q222.98 62.57 223.82 63.29L223.82 63.29L225.44 61.69L226.12 61.69L226.12 67.13L225.34 67.13Q225.13 65.96 224.36 64.91Q223.59 63.85 222.35 63.18Q221.11 62.51 219.49 62.51L219.49 62.51Q218.58 62.51 217.81 62.82Q217.05 63.13 216.61 63.72Q216.16 64.30 216.16 65.10L216.16 65.10Q216.16 66.14 216.95 66.79Q217.74 67.44 218.99 67.91Q220.25 68.38 221.65 68.87Q223.04 69.35 224.30 70.04Q225.56 70.72 226.35 71.79Q227.14 72.86 227.14 74.52L227.14 74.52Q227.14 76.33 226.25 77.66Q225.36 78.99 223.88 79.69Q222.40 80.39 220.58 80.39L220.58 80.39Q219.20 80.39 217.97 79.92Q216.74 79.45 215.79 78.62L215.79 78.62L214.09 80.39ZM235.01 55.68L235.01 55.68Q233.94 55.68 233.18 54.91Q232.42 54.14 232.42 53.05L232.42 53.05Q232.42 51.96 233.18 51.20Q233.94 50.44 235.01 50.44L235.01 50.44Q236.13 50.44 236.89 51.20Q237.65 51.96 237.65 53.05L237.65 53.05Q237.65 54.14 236.89 54.91Q236.13 55.68 235.01 55.68ZM230.41 62.06L237.04 62.06L237.04 79.24L239.62 79.24L239.62 80L230.41 80L230.41 79.24L232.99 79.24L232.99 62.82L230.41 62.82L230.41 62.06ZM252.00 80.39L252.00 80.39Q249.19 80.39 247.14 79.10Q245.10 77.82 243.98 75.69Q242.87 73.56 242.87 71.03L242.87 71.03Q242.87 68.50 243.98 66.37Q245.10 64.24 247.14 62.97Q249.19 61.69 252.00 61.69L252.00 61.69Q254.79 61.69 256.82 62.97Q258.86 64.24 259.96 66.37Q261.07 68.50 261.07 71.03L261.07 71.03Q261.07 73.56 259.96 75.69Q258.86 77.82 256.82 79.10Q254.79 80.39 252.00 80.39ZM252.00 79.63L252.00 79.63Q253.42 79.63 254.33 78.86Q255.24 78.09 255.72 76.81Q256.21 75.53 256.40 74.01Q256.58 72.49 256.58 71.03L256.58 71.03Q256.58 69.55 256.40 68.04Q256.21 66.53 255.72 65.25Q255.24 63.97 254.33 63.20Q253.42 62.43 252.00 62.43L252.00 62.43Q250.56 62.43 249.65 63.20Q248.74 63.97 248.25 65.25Q247.77 66.53 247.58 68.04Q247.40 69.55 247.40 71.03L247.40 71.03Q247.40 72.49 247.58 74.01Q247.77 75.53 248.25 76.81Q248.74 78.09 249.65 78.86Q250.56 79.63 252.00 79.63ZM264.22 62.06L270.78 62.06L270.78 79.24L273.16 79.24L273.16 80L264.22 80L264.22 79.24L266.82 79.24L266.82 62.82L264.22 62.82L264.22 62.06ZM282.67 67.54L282.67 67.54L282.67 79.24L285.27 79.24L285.27 80L276.30 80L276.30 79.24L278.69 79.24L278.69 68.11Q278.69 66.47 278.55 65.29Q278.40 64.11 277.92 63.47Q277.45 62.84 276.45 62.84L276.45 62.84Q275.01 62.84 273.94 63.66Q272.86 64.48 272.17 65.77Q271.48 67.05 271.13 68.50Q270.78 69.96 270.78 71.26L270.78 71.26L270.27 71.34Q270.27 70.02 270.60 68.37Q270.93 66.72 271.73 65.20Q272.53 63.68 273.89 62.68Q275.24 61.69 277.31 61.69L277.31 61.69Q279.57 61.69 280.71 62.44Q281.85 63.19 282.26 64.52Q282.67 65.84 282.67 67.54ZM290.74 80.39L290.74 80.39Q290.00 80.39 289.40 80.03Q288.79 79.67 288.43 79.06Q288.07 78.46 288.07 77.72L288.07 77.72Q288.07 77.00 288.43 76.38Q288.79 75.77 289.40 75.41Q290.00 75.05 290.74 75.05L290.74 75.05Q291.47 75.05 292.08 75.41Q292.69 75.77 293.06 76.38Q293.42 77.00 293.42 77.72L293.42 77.72Q293.42 78.46 293.06 79.06Q292.69 79.67 292.08 80.03Q291.47 80.39 290.74 80.39Z"/>
</svg>
